<svg width="32" height="32" viewBox="0 0 32 32" fill="none" xmlns="http://www.w3.org/2000/svg">
<g clip-path="url(#clip0_323_110)">
<path d="M27.0892 5.82669C25.0146 4.87447 22.8253 4.19547 20.5759 3.80669C20.5554 3.80269 20.5341 3.80532 20.5152 3.81419C20.4963 3.82305 20.4806 3.8377 20.4706 3.85602C20.1906 4.35602 19.8786 5.00802 19.6599 5.52269C17.2351 5.1544 14.7687 5.1544 12.3439 5.52269C12.1006 4.95243 11.8259 4.39602 11.5212 3.85602C11.5107 3.83811 11.495 3.82381 11.4762 3.815C11.4574 3.80619 11.4364 3.8033 11.4159 3.80669C9.16637 4.19466 6.97688 4.8737 4.90258 5.82669C4.88501 5.83406 4.87012 5.84662 4.85991 5.86269C0.710575 12.0614 -0.426758 18.1067 0.131908 24.076C0.133265 24.0908 0.137631 24.1052 0.144738 24.1183C0.151845 24.1314 0.161544 24.1428 0.173242 24.152C2.5887 25.9416 5.29072 27.3077 8.16391 28.192C8.18416 28.1979 8.20572 28.1975 8.22572 28.1908C8.24572 28.1841 8.26322 28.1715 8.27591 28.1547C8.89191 27.3147 9.44124 26.428 9.91058 25.496C9.91713 25.4833 9.92091 25.4693 9.92168 25.455C9.92244 25.4407 9.92016 25.4264 9.915 25.4131C9.90983 25.3997 9.90189 25.3876 9.89171 25.3776C9.88153 25.3675 9.86932 25.3597 9.85591 25.3547C8.9938 25.0248 8.15919 24.6271 7.35991 24.1654C7.34526 24.1569 7.33293 24.1449 7.32402 24.1305C7.3151 24.1161 7.30989 24.0998 7.30883 24.0829C7.30778 24.066 7.31091 24.0491 7.31796 24.0337C7.32501 24.0183 7.33576 24.0049 7.34924 23.9947C7.51756 23.8688 7.68294 23.739 7.84524 23.6054C7.85944 23.5938 7.87656 23.5865 7.89469 23.5841C7.91281 23.5818 7.93124 23.5845 7.94791 23.592C13.1852 25.9827 18.8546 25.9827 24.0306 23.592C24.0474 23.5842 24.0661 23.5814 24.0845 23.5837C24.1029 23.5861 24.1202 23.5936 24.1346 23.6054C24.2946 23.736 24.4626 23.8694 24.6319 23.9947C24.6452 24.0048 24.6559 24.0179 24.663 24.033C24.6701 24.0482 24.6734 24.0648 24.6726 24.0815C24.6718 24.0982 24.667 24.1144 24.6585 24.1288C24.65 24.1432 24.6381 24.1553 24.6239 24.164C23.8264 24.6301 22.991 25.028 22.1266 25.3534C22.1131 25.3585 22.1009 25.3664 22.0907 25.3766C22.0805 25.3868 22.0726 25.399 22.0674 25.4125C22.0623 25.426 22.06 25.4403 22.0608 25.4547C22.0615 25.4691 22.0653 25.4832 22.0719 25.496C22.5519 26.4267 23.1012 27.312 23.7052 28.1534C23.7177 28.1705 23.7352 28.1833 23.7552 28.19C23.7753 28.1967 23.797 28.197 23.8172 28.1907C26.6952 27.3091 29.4016 25.9429 31.8199 24.1507C31.8317 24.1424 31.8416 24.1316 31.8489 24.1192C31.8563 24.1068 31.8609 24.093 31.8626 24.0787C32.5292 17.176 30.7452 11.18 27.1306 5.86536C27.1221 5.84743 27.1074 5.83321 27.0892 5.82536V5.82669ZM10.6932 20.44C9.11591 20.44 7.81724 18.9934 7.81724 17.2147C7.81724 15.4374 9.09191 13.9894 10.6932 13.9894C12.3066 13.9894 13.5946 15.4507 13.5692 17.216C13.5692 18.9934 12.2946 20.44 10.6932 20.44ZM21.3266 20.44C19.7492 20.44 18.4506 18.9934 18.4506 17.2147C18.4506 15.4374 19.7239 13.9894 21.3266 13.9894C22.9399 13.9894 24.2279 15.4507 24.2026 17.216C24.2026 18.9934 22.9412 20.44 21.3266 20.44Z" fill="white"/>
</g>
<defs>
<clipPath id="clip0_323_110">
<rect width="32" height="32" fill="white"/>
</clipPath>
</defs>
</svg>
