<svg id="Layer_1" data-name="Layer 1" xmlns="http://www.w3.org/2000/svg" xmlns:xlink="http://www.w3.org/1999/xlink" viewBox="0 0 750 750"><defs><style>.cls-1{fill:url(#linear-gradient);}.cls-2{fill:url(#linear-gradient-2);}</style><linearGradient id="linear-gradient" x1="375" y1="752" x2="375" y2="2" gradientTransform="matrix(1, 0, 0, -1, 0, 752)" gradientUnits="userSpaceOnUse"><stop offset="0" stop-color="#534bb1"/><stop offset="1" stop-color="#551bf9"/></linearGradient><linearGradient id="linear-gradient-2" x1="382.98" y1="616.36" x2="382.98" y2="121.68" gradientTransform="matrix(1, 0, 0, -1, 0, 752)" gradientUnits="userSpaceOnUse"><stop offset="0" stop-color="#fff"/><stop offset="1" stop-color="#fff" stop-opacity="0.82"/></linearGradient></defs><title>phantom-logo-freelogovectors.net</title><circle class="cls-1" cx="375" cy="375" r="375"/><path class="cls-2" d="M643.46,379.57H577.35c0-134.72-109.59-243.93-244.8-243.93-133.52,0-242.08,106.53-244.74,239-2.75,136.87,126.12,255.73,263.5,255.73h17.28c121.12,0,283.45-94.48,308.81-209.59C682.09,399.51,665.27,379.57,643.46,379.57Zm-409.14,6a32.87,32.87,0,0,1-65.74,0v-53a32.87,32.87,0,0,1,65.74,0Zm114.12,0a32.87,32.87,0,0,1-65.73,0v-53a32.87,32.87,0,0,1,65.73,0Z"/></svg>